<?xml version="1.0" encoding="UTF-8"?><svg id="Layer_2" xmlns="http://www.w3.org/2000/svg" viewBox="0 0 616.2 141.94"><defs><style>.cls-1{fill:#74ef70;}.cls-1,.cls-2{stroke-width:0px;}.cls-2{fill:#fff;}</style></defs><g id="Layer_1-2"><path class="cls-1" d="m69.34,71.37c.02.1.04.2.05.3,14.65,2.15,35.8,12.66,36.15,55.33h-39.16c-5.94,0-10.76-4.82-10.76-10.76v-28.46c-.09,0-.18,0-.27,0-2.08,14.66-12.48,36.01-55.36,36.36v-39.16c0-5.94,4.82-10.76,10.76-10.76h30.95,0c-.26-.02-.52-.03-.79-.06-14.65-1.52-37.7-11-38.06-55.57h39.16c5.94,0,10.76,4.82,10.76,10.76v30.85s0,0,.01,0c0-.23.02-.46.05-.69,1.52-14.65,11-37.7,55.57-38.06v39.16c0,5.94-4.82,10.76-10.76,10.76h-28.3Z"/><circle class="cls-2" cx="54.36" cy="74.53" r="10.27"/><path class="cls-2" d="m197.44,6l38,72.4-3-72.4h23.69c6.25,0,11.31,5.06,11.31,11.31v122.29h-35l-37.6-72,2.6,72h-35V6h35Zm81.6,83.6c0-7.47,1.13-14.4,3.4-20.8,2.27-6.4,5.67-11.9,10.2-16.5,4.53-4.6,10.23-8.2,17.1-10.8,6.87-2.6,14.83-3.9,23.9-3.9s17.03,1.3,23.9,3.9c6.87,2.6,12.57,6.2,17.1,10.8,4.53,4.6,7.93,10.1,10.2,16.5,2.27,6.4,3.4,13.33,3.4,20.8s-1.13,14.4-3.4,20.8c-2.27,6.4-5.67,11.9-10.2,16.5-4.53,4.6-10.23,8.2-17.1,10.8-6.87,2.6-14.83,3.9-23.9,3.9s-17.03-1.3-23.9-3.9c-6.87-2.6-12.57-6.2-17.1-10.8-4.53-4.6-7.93-10.1-10.2-16.5-2.27-6.4-3.4-13.33-3.4-20.8Zm31.6,0c0,7.2,1.77,13.17,5.3,17.9,3.53,4.73,9.43,7.1,17.7,7.1s14.17-2.37,17.7-7.1c3.53-4.73,5.3-10.7,5.3-17.9s-1.77-13.17-5.3-17.9c-3.53-4.73-9.43-7.1-17.7-7.1s-14.17,2.37-17.7,7.1c-3.53,4.73-5.3,10.7-5.3,17.9Zm89.2,50V0h23.7c6.24,0,11.3,5.06,11.3,11.3v128.3h-35Zm50.6,0V0h23.93c6.11,0,11.07,4.95,11.07,11.07v128.53h-35Zm87.44-70.12l-37.99-4c1.43-6.64,3.5-11.87,6.2-15.67,2.7-3.81,6.59-7.11,11.67-9.91,3.65-2.02,8.66-3.58,15.04-4.69,6.38-1.11,13.28-1.66,20.7-1.66,11.91,0,21.48.67,28.71,2,7.23,1.33,13.25,4.12,18.07,8.35,3.38,2.93,6.05,7.08,8.01,12.45s2.93,10.5,2.93,15.38v45.8c0,4.88.31,8.71.93,11.47.62,2.77,1.97,6.3,4.05,10.6h-37.3c-1.5-2.67-2.47-4.7-2.93-6.1-.46-1.4-.91-3.6-1.37-6.59-5.21,5.01-10.38,8.59-15.53,10.74-7.03,2.86-15.2,4.3-24.51,4.3-12.37,0-21.76-2.86-28.17-8.59-6.41-5.73-9.62-12.79-9.62-21.19,0-7.88,2.31-14.36,6.93-19.43,4.62-5.08,13.15-8.85,25.59-11.33,14.91-2.99,24.58-5.09,29-6.3,4.43-1.2,9.11-2.78,14.06-4.74,0-4.88-1.01-8.3-3.03-10.25-2.02-1.95-5.57-2.93-10.64-2.93-6.51,0-11.39,1.04-14.65,3.12-2.54,1.63-4.59,4.69-6.15,9.18Zm34.47,20.9c-5.47,1.95-11.17,3.68-17.09,5.18-8.07,2.15-13.18,4.26-15.33,6.35-2.21,2.15-3.32,4.59-3.32,7.32,0,3.12,1.09,5.68,3.27,7.67,2.18,1.99,5.39,2.98,9.62,2.98s8.54-1.07,12.35-3.22,6.51-4.77,8.11-7.86c1.59-3.09,2.39-7.11,2.39-12.06v-6.35Z"/></g></svg>